<?xml version="1.0" encoding="utf-8"?>
<!-- Generator: Adobe Illustrator 27.5.0, SVG Export Plug-In . SVG Version: 6.00 Build 0)  -->
<svg version="1.1" id="Layer_1" xmlns="http://www.w3.org/2000/svg" xmlns:xlink="http://www.w3.org/1999/xlink" x="0px" y="0px"
	 viewBox="0 0 1467 156.59" style="enable-background:new 0 0 1467 156.59;" xml:space="preserve">
<style type="text/css">
	.st0{fill:#54595D;}
</style>
<g>
	<path class="st0" d="M1321.43,19.32c-4.15,4.98-8.3,9.69-12.45,14.39c-0.28,0-0.28,0-0.28,0c-8.3-7.2-17.43-12.45-28.23-15.22
		c-6.92-1.66-13.84-2.49-20.76-1.66c-9.69,1.11-18.82,4.15-27.12,9.69c-8.3,5.26-14.94,12.18-19.93,20.76
		c-4.7,8.03-7.47,16.88-8.03,26.29c-1.38,18.26,4.15,34.04,16.6,47.32c8.03,8.3,17.71,14.11,29.06,17.16
		c7.2,1.94,14.94,2.49,22.14,1.94c13.01-1.38,24.35-6.09,34.32-14.67c9.96-8.86,16.33-19.65,19.65-32.38
		c0.28-0.55,0.28-1.38,0.28-1.94c0-0.28,0-1.38,0-1.38h-2.77l-53.96-0.28V69.97h78.87c0,0.55,0,1.38,0,1.66
		c0.28,11.62-1.94,22.97-5.81,33.76c-2.49,6.92-5.81,13.56-10.24,19.65c-5.53,7.47-11.9,13.84-19.65,19.1
		c-9.41,6.37-19.65,10.52-30.99,12.73c-7.75,1.38-15.5,1.66-23.52,1.11c-6.92-0.55-13.56-1.66-20.2-3.87
		c-9.96-3.6-19.65-8.3-27.95-15.22c-11.35-9.96-19.1-22.14-24.08-36.25c-3.6-10.52-4.98-21.59-3.6-32.66
		c1.94-15.5,7.75-29.33,17.43-41.51c10.52-13.28,24.08-21.86,40.13-26.84c6.92-2.21,14.11-3.04,21.31-3.32
		c10.24-0.55,20.2,0.55,29.89,3.87c7.47,2.49,14.39,6.09,21.03,10.52c1.94,1.38,3.87,2.77,5.53,4.15
		C1319.5,17.39,1320.33,18.49,1321.43,19.32L1321.43,19.32z"/>
	<path class="st0" d="M102.95,120.89V0.5h19.93v155.8h-18.54c-1.66-2.77-83.58-119.55-84.41-120.94v120.66H0V0.5h18.82
		C46.77,40.08,102.95,120.89,102.95,120.89z"/>
	<path class="st0" d="M623.22,0.5c0.55,0,4.7,0,6.09,0c13.01,0,25.74-0.28,38.74,0c7.75,0,15.22,1.11,22.69,3.6
		c12.18,4.43,21.59,12.45,26.84,24.63c1.94,4.43,3.04,9.13,3.32,14.11c0.83,8.03-0.28,15.5-3.32,22.97
		c-3.32,8.03-8.58,14.11-15.77,19.1c-6.92,4.7-14.67,7.47-22.97,8.86c-0.83,0.28-1.94,0-2.77,0.28c-0.83,0-1.66,0.28-2.77,0.55
		c20.48,20.48,40.68,40.96,60.88,61.99h-24.08c-2.77,0-4.15-0.55-5.81-2.21c-5.81-6.09-11.62-12.18-17.43-18.26
		c-8.3-8.58-16.6-17.16-24.91-25.74c-5.81-6.09-11.9-12.18-17.71-18.54c-0.28-0.28-0.55-0.55-0.83-0.83
		c-0.55,0.83-0.28,1.38-0.28,2.21c0,18.82,0,37.36,0,56.18c0,1.66,0,5.53,0,7.2h-19.93L623.22,0.5L623.22,0.5z M643.42,17.66
		c0,1.11,0,1.94,0,2.77c0,14.94,0,29.89,0,44.83c0,3.32,0,6.64,0,9.96c0,0.83-0.28,1.66,0.55,2.21c2.21,0,4.7,0,6.92,0
		c6.92,0.28,13.84,0.28,21.03-0.55c6.09-0.83,11.9-2.21,17.16-5.53c4.7-2.77,8.03-6.92,10.24-12.18c1.94-5.26,2.21-10.52,1.66-16.05
		c-0.55-4.98-2.21-9.69-5.26-13.56c-3.87-4.98-8.86-8.3-14.94-10.24c-4.15-1.11-8.58-1.66-12.73-1.66c-7.75,0-15.5,0-23.25-0.28
		C644.25,17.66,643.97,17.66,643.42,17.66L643.42,17.66z"/>
	<path class="st0" d="M1163.97,156.03h-21.86l-13.84-36.25h-73.34l-14.11,35.98l-21.59-0.28c0,0,62.54-152.21,62.54-152.48
		c0.83-1.66,1.66-2.49,3.32-2.49h12.73c1.66,0,2.77,1.66,3.32,2.49C1122.46,54.47,1142.66,104.28,1163.97,156.03L1163.97,156.03z
		 M1121.07,102.34l-28.5-74.17c-0.28-0.83-1.38-0.55-1.94,0c-0.55,1.66-28.5,74.17-28.5,74.17H1121.07z"/>
	<path class="st0" d="M306.63,156.03h-21.59l-14.11-36.25h-73.06l-14.39,35.98l-21.59-0.28c0,0,62.54-152.21,62.82-152.48
		c0.83-1.66,1.66-2.49,3.32-2.49h12.73c1.66,0,2.77,1.66,3.32,2.49C265.12,54.47,285.6,104.28,306.63,156.03L306.63,156.03z
		 M264.01,102.34l-28.5-74.17c-0.28-0.83-1.38-0.55-1.94,0c-0.55,1.66-28.5,74.17-28.5,74.17S264.01,102.34,264.01,102.34z"/>
	<path class="st0" d="M573.68,0.5c0,1.38,0,3.04,0,4.15c0,27.95,0,55.62,0,83.58c0,4.98,0,9.69,0,14.67c0,0.83,0,1.66-0.28,2.49
		c-0.55,5.81-1.66,11.07-3.87,16.6c-3.6,9.69-9.69,17.43-17.99,23.8c-5.26,4.15-11.35,6.64-17.16,8.86
		c-8.3,3.32-16.88,4.15-25.74,3.87c-13.01-0.55-24.63-4.43-35.15-12.18c-10.24-7.75-17.16-17.71-20.48-30.16
		c-1.11-4.15-1.66-8.3-1.94-12.73c-0.83-9.13-0.28-18.54-0.28-27.67c0-21.86,0-43.72,0-65.59c0-2.49,0-9.41,0-9.41h19.65
		c0,0,0,56.73,0,84.41c0,4.43,0,8.58,0.28,13.01c0.28,6.09,1.66,12.45,4.15,17.99c3.32,7.2,8.03,13.28,14.67,17.71
		c4.43,3.04,9.69,4.7,14.94,5.53c7.2,0.83,14.67,0.55,21.59-1.94c10.79-3.6,18.54-10.79,22.97-21.31c2.21-5.26,3.6-10.52,4.15-16.05
		c0.28-3.32,0.55-6.37,0.55-9.69c0-27.4,0-54.79,0-82.19c0-1.94-0.28-4.15-0.28-6.09c0-0.55,0-1.66,0-2.21c0.55-0.28,1.11,0,1.66,0
		c3.87,0,7.75,0,11.62,0c1.38,0,2.77,0,4.43,0C572.3,0.5,572.85,0.5,573.68,0.5L573.68,0.5z"/>
	<path class="st0" d="M993.22,44.78h-19.1c0-0.83,0-1.38-0.28-2.21c-0.83-4.43-2.21-8.86-4.43-12.73
		c-4.15-7.47-10.52-12.45-19.1-14.11c-1.11-0.28-2.49-0.28-3.6-0.28c-4.98,0-10.24,0-14.94,1.66c-9.13,3.6-14.39,9.96-15.5,19.65
		c-0.28,3.32-0.28,6.37,0.55,9.69c0.83,3.6,2.77,6.64,5.53,9.13c2.77,2.77,6.09,4.98,9.69,6.64s7.47,3.04,11.07,4.43
		c6.64,2.49,13.28,4.7,19.65,7.47c7.2,3.04,14.11,6.92,19.93,12.45c6.09,5.81,10.52,13.01,11.62,21.59
		c1.38,8.58,0.55,17.16-3.32,24.91c-2.21,4.7-5.26,8.86-9.41,12.45c-8.58,7.75-18.54,11.35-29.61,12.45
		c-6.92,0.83-13.84,0.55-20.76-0.83c-9.96-2.21-19.1-6.09-26.01-13.84c-3.87-4.15-6.09-8.86-8.3-14.11
		c-1.66-3.87-2.49-8.03-3.04-12.18c0-0.83-0.28-1.94-0.28-2.77c0-0.55-0.28-1.38-0.28-1.66h20.2c0,0.55,0,1.38,0,2.21
		c0.83,6.09,2.77,11.62,6.64,16.6c4.15,4.98,9.41,7.75,15.5,9.13c5.53,1.11,11.07,1.38,16.6,0.28c6.92-1.11,12.73-4.15,17.16-9.41
		c5.26-6.09,6.64-13.01,4.7-20.76c-0.83-3.04-2.77-5.53-4.98-7.75c-4.43-4.7-9.69-8.03-15.5-10.52c-6.37-2.77-13.01-4.98-19.37-7.75
		c-4.43-1.66-8.86-3.6-13.28-5.53c-8.86-4.15-16.05-10.24-20.76-18.82c-2.77-5.26-4.15-10.79-4.43-16.6
		c-0.28-6.92,0.55-13.84,3.6-20.2c2.21-4.98,5.53-9.41,9.69-13.01c6.92-5.81,14.67-9.69,23.25-11.35
		c5.53-1.11,11.35-1.38,17.16-0.83c6.64,0.55,12.45,2.49,18.26,5.26c5.26,2.49,9.69,6.09,13.28,10.52
		c4.43,5.53,7.75,11.9,9.41,18.82c0.55,2.77,1.11,4.43,1.66,7.2C992.94,41.18,992.94,43.4,993.22,44.78L993.22,44.78z"/>
	<path class="st0" d="M854.85,156.03h-81.64V0.5c1.11,0,81.36,0,81.36,0v18.82h-61.16v48.71c0.83,0,61.44,0,61.44,0v18.54
		c0,0-60.88,0-61.44,0c0,0.83,0,50.92,0,50.92h61.44C854.85,137.21,854.85,156.03,854.85,156.03z"/>
	<path class="st0" d="M1467,156.03h-81.64V0.5c1.11,0,81.36,0,81.36,0v18.82h-61.16v48.71c0.83,0,61.44,0,61.44,0v18.54
		c0,0-60.88,0-61.44,0c0,0.83,0,50.92,0,50.92H1467V156.03z"/>
	<path class="st0" d="M354.23,19.05h-38.74V0.5h98.24v18.82h-39.3c0,43.17,0,136.99,0,136.99h-20.2V19.05L354.23,19.05z"/>
</g>
</svg>
