<?xml version="1.0" encoding="UTF-8"?>
<!DOCTYPE svg PUBLIC "-//W3C//DTD SVG 1.1//EN" "http://www.w3.org/Graphics/SVG/1.1/DTD/svg11.dtd">
<!-- Creator: CorelDRAW 2021 (64-Bit) -->
<svg xmlns="http://www.w3.org/2000/svg" xml:space="preserve" width="853px" height="381px" version="1.1" style="shape-rendering:geometricPrecision; text-rendering:geometricPrecision; image-rendering:optimizeQuality; fill-rule:evenodd; clip-rule:evenodd"
viewBox="0 0 583.52 260.31"
 xmlns:xlink="http://www.w3.org/1999/xlink"
 xmlns:xodm="http://www.corel.com/coreldraw/odm/2003">
 <defs>
  <style type="text/css">
   <![CDATA[
    .fil1 {fill:#19C4D5}
    .fil3 {fill:#1F1A17}
    .fil2 {fill:white}
    .fil0 {fill:#19C4D5;fill-rule:nonzero}
   ]]>
  </style>
 </defs>
 <g id="Layer_x0020_1">
  <metadata id="CorelCorpID_0Corel-Layer"/>
  <g id="_2190716748880">
   <g id="_115180360">
    <path id="_115529088" class="fil0" d="M0 243.55l0 -60.96 19.74 0c7.48,0 12.37,0.31 14.64,0.92 3.49,0.91 6.43,2.9 8.78,5.96 2.36,3.07 3.54,7.03 3.54,11.87 0,3.75 -0.68,6.9 -2.05,9.44 -1.36,2.55 -3.08,4.55 -5.18,6.02 -2.08,1.44 -4.21,2.41 -6.37,2.88 -2.94,0.58 -7.2,0.88 -12.77,0.88l-8.02 0 0 22.99 -12.31 0zm12.31 -50.64l0 17.29 6.72 0c4.86,0 8.11,-0.32 9.74,-0.95 1.63,-0.64 2.91,-1.64 3.85,-3 0.92,-1.36 1.39,-2.94 1.39,-4.74 0,-2.21 -0.66,-4.04 -1.96,-5.49 -1.29,-1.44 -2.95,-2.34 -4.94,-2.7 -1.48,-0.28 -4.43,-0.41 -8.86,-0.41l-5.94 0z"/>
    <path id="_1155290881" class="fil0" d="M54.3 213.45c0,-6.22 0.93,-11.43 2.79,-15.64 1.39,-3.1 3.27,-5.89 5.67,-8.36 2.4,-2.46 5.03,-4.29 7.88,-5.48 3.8,-1.62 8.18,-2.41 13.14,-2.41 8.99,0 16.17,2.78 21.56,8.36 5.4,5.56 8.09,13.31 8.09,23.23 0,9.85 -2.68,17.54 -8.03,23.11 -5.35,5.55 -12.5,8.33 -21.45,8.33 -9.07,0 -16.28,-2.77 -21.63,-8.29 -5.35,-5.54 -8.02,-13.16 -8.02,-22.85zm12.68 -0.41c0,6.89 1.6,12.13 4.78,15.69 3.2,3.57 7.24,5.34 12.15,5.34 4.9,0 8.93,-1.76 12.08,-5.31 3.14,-3.53 4.71,-8.83 4.71,-15.89 0,-6.99 -1.53,-12.2 -4.58,-15.65 -3.07,-3.43 -7.14,-5.15 -12.21,-5.15 -5.08,0 -9.17,1.75 -12.28,5.23 -3.09,3.47 -4.65,8.71 -4.65,15.74z"/>
    <polygon id="_11552908812" class="fil0" points="123.37,243.55 123.37,183.09 135.67,183.09 135.67,233.28 166.27,233.28 166.27,243.55 "/>
    <polygon id="_115529088123" class="fil0" points="175.38,243.55 175.38,183.09 187.69,183.09 187.69,233.28 218.29,233.28 218.29,243.55 "/>
    <polygon id="_1155290881234" class="fil0" points="320.34,243.55 320.34,182.59 332.65,182.59 332.65,209.66 357.52,182.59 374.07,182.59 351.11,206.34 375.31,243.55 359.39,243.55 342.64,214.94 332.65,225.13 332.65,243.55 "/>
    <polygon id="_11552908812345" class="fil0" points="381.8,243.55 381.8,182.59 393.78,182.59 418.73,223.3 418.73,182.59 430.17,182.59 430.17,243.55 417.81,243.55 393.24,203.8 393.24,243.55 "/>
    <path id="_115529088123456" class="fil0" d="M440.69 213.45c0,-6.22 0.92,-11.43 2.78,-15.64 1.39,-3.1 3.28,-5.89 5.68,-8.36 2.39,-2.46 5.02,-4.29 7.87,-5.48 3.81,-1.62 8.18,-2.41 13.15,-2.41 8.98,0 16.16,2.78 21.56,8.36 5.39,5.56 8.09,13.31 8.09,23.23 0,9.85 -2.69,17.54 -8.04,23.11 -5.35,5.55 -12.5,8.33 -21.44,8.33 -9.07,0 -16.28,-2.77 -21.63,-8.29 -5.35,-5.54 -8.02,-13.16 -8.02,-22.85zm12.67 -0.41c0,6.89 1.61,12.13 4.79,15.69 3.19,3.57 7.23,5.34 12.14,5.34 4.9,0 8.93,-1.76 12.08,-5.31 3.14,-3.53 4.72,-8.83 4.72,-15.89 0,-6.99 -1.54,-12.2 -4.59,-15.65 -3.06,-3.43 -7.14,-5.15 -12.21,-5.15 -5.08,0 -9.16,1.75 -12.27,5.23 -3.1,3.47 -4.66,8.71 -4.66,15.74z"/>
    <polygon id="_1155290881234567" class="fil0" points="518.07,243.55 503.52,182.59 516.11,182.59 525.31,224.46 536.45,182.59 551.08,182.59 561.77,225.17 571.12,182.59 583.52,182.59 568.71,243.55 555.65,243.55 543.52,197.98 531.41,243.55 "/>
    <g>
     <path id="_115456184" class="fil1" d="M416.31 40.76c-16.13,-26.65 -50.61,-40.31 -85.36,-40.75 -35.87,-0.44 -72.08,13.14 -88.83,41.04 -1.86,5.62 -3.73,9.37 -5.58,26.23l0.31 156.08 -0.9 28.47 55.37 -102.23c10.21,-0.02 40.88,-0.07 40.88,-0.07 49.02,-0.08 91.74,-20.6 91.66,-75.07 -0.03,-11.72 -2.26,-23.17 -7.55,-33.7zm-52.07 18.53c-6.42,-8.53 -20.43,-12.92 -34.46,-12.84 -19.23,0.09 -38.55,8.61 -38.52,26.35l0.05 32.85 40.15 -0.07c14.61,-0.02 24.33,-3.69 29.19,-8.56 6.08,-4.87 8.51,-12.18 8.49,-20.7 -0.01,-7.29 -1.23,-12.16 -4.9,-17.03z"/>
     <path id="_115456760" class="fil2" d="M244.08 246.79c1.51,2.85 1.47,6.4 -0.4,9.3 -2.75,4.27 -8.45,5.5 -12.72,2.75 -4.27,-2.76 -5.5,-8.46 -2.75,-12.73 0.14,-0.21 0.28,-0.41 0.43,-0.6l-1.15 0.08 2.43 -6.08c3.46,-8.62 7.53,-17.19 11.34,-25.66 0.62,-1.36 -3.14,-8.65 -3.79,-10.06 -2.33,-5.02 -4.52,-10.88 -2.15,-16.31 2.54,-5.82 10.7,-10.83 15.67,-14.65 7.01,-5.38 12.88,-11.16 16.3,-19.48l0.15 -0.35 0.2 -0.31c10.2,-15.82 -2.35,-32.87 -15.76,-41.59 -9.16,-5.95 -22.35,-10.6 -33.13,-6.62 -6.06,2.25 -9.83,6.06 -13.29,11.43 -4.23,6.52 -4.09,14.39 -2,21.64 2.21,6.52 1.93,12.13 -2.79,17.47l-0.61 0.69 -0.84 0.36c-5.98,2.59 -11.85,1.89 -16.64,-2.57 -6.62,-5.1 -10.89,-13.57 -12.03,-21.75 -1.73,-12.38 3.18,-23.81 11.06,-33.15 4.23,-6.5 9.56,-12.12 16.23,-16.15l0.17 -0.11 0.18 -0.08c20.77,-9.92 46.89,-2.63 65.44,8.97 19.06,11.92 37.44,32.89 37.35,56.55l0 0.52 -0.14 0.51c-1.58,5.97 -3.5,10.75 -6.24,16.28l-0.38 0.77 -35.38 29.85 2.16 26.61 -14.72 25.07 -2.2 -0.6z"/>
     <path id="_115456088" class="fil3" d="M238.71 246.81c-2.37,-1.52 -5.52,-0.84 -7.05,1.53 -1.53,2.37 -0.85,5.53 1.52,7.05 2.37,1.53 5.53,0.85 7.06,-1.52 1.52,-2.37 0.84,-5.53 -1.53,-7.06zm-38.75 -160.85c19.44,-9.28 44.22,-2.05 61.49,8.75 17.77,11.11 35.51,30.89 35.43,53.05 -1.58,5.93 -3.09,9.71 -5.96,15.52l-36.34 30.66 2.23 27.42 -12.48 21.24c-2.54,-0.7 -4.25,-2.01 -10.6,-1.57 2.33,-5.82 6.02,-13.82 11.27,-25.5 2.75,-6.11 -9.57,-18.06 -5.92,-26.41 3.82,-8.77 23.94,-14.59 32.01,-34.21 11.53,-17.89 -1.55,-37.22 -16.98,-47.25 -10.31,-6.7 -24.7,-11.49 -36.78,-7.02 -6.92,2.56 -11.37,6.91 -15.32,13.04 -4.85,7.5 -4.97,16.46 -2.46,25.1 1.97,5.78 1.47,9.65 -1.96,13.53 -4.73,2.05 -8.85,1.4 -12.35,-1.94 -9.42,-7.12 -18.82,-27.6 -0.33,-49.32 3.92,-6.07 8.84,-11.34 15.05,-15.09z"/>
    </g>
   </g>
  </g>
 </g>
</svg>
