<svg xmlns="http://www.w3.org/2000/svg" xml:space="preserve" width="955px" height="239px" version="1.1" style="shape-rendering:geometricPrecision; text-rendering:geometricPrecision; image-rendering:optimizeQuality; fill-rule:evenodd; clip-rule:evenodd"
viewBox="0 0 180.71 45.2"
 xmlns:xlink="http://www.w3.org/1999/xlink"
 xmlns:xodm="http://www.corel.com/coreldraw/odm/2003">
 <defs>
  <style type="text/css">
   <![CDATA[
    .fil2 {fill:black}
    .fil4 {fill:#0093DD}
    .fil5 {fill:#28166F}
    .fil1 {fill:#E6E6E6}
    .fil0 {fill:white}
    .fil3 {fill:white}
    .fil6 {fill:white;fill-rule:nonzero}
   ]]>
  </style>
 </defs>
 <g id="Layer_x0020_1">
  <metadata id="CorelCorpID_0Corel-Layer"/>
  <path class="fil0" d="M22.04 3.07l-5.84 1.27 -5.76 -1.25c-4.11,0.33 -7.37,3.8 -7.37,7.99l0 16.57c0,4.2 3.26,7.67 7.38,8l5.75 -0.86 5.84 0.88 36.61 0 117.51 0c-3.97,-6.18 -6.1,-12.45 -5.53,-18.84 0.4,-4.52 2.15,-9.1 5.53,-13.76l-154.12 0 0 0 0 0z"/>
  <g id="_2965635261184">
   <path class="fil1" d="M16.2 37.89l-5.65 0.84 -0.34 -0.03c-5.75,-0.45 -10.21,-5.29 -10.21,-11.05l0 -16.57c0,-5.75 4.46,-10.58 10.19,-11.04l0.46 -0.04 5.55 1.2 5.51 -1.2 159 0 -3.48 4.85c-7.08,9.87 -6.47,19.17 0.07,29.14l3.12 4.75 -5.68 0c-38.7,0 -77.39,0 -116.09,0l-36.84 0 -5.61 -0.85z"/>
  </g>
  <path class="fil2" d="M16.2 36.62l-5.69 0.85 -0.21 -0.01c-5.09,-0.41 -9.05,-4.69 -9.05,-9.81l0 -16.57c0,-5.1 3.96,-9.39 9.04,-9.8l0.27 -0.02 5.64 1.22 5.64 -1.23 156.44 0 -2.06 2.87c-7.32,10.2 -6.85,20.05 0.04,30.56l1.84 2.81 -3.36 0c-39.17,0 -76.92,0 -116.09,0l-36.75 0 -5.7 -0.87z"/>
  <path class="fil3" d="M176.16 3.07l-154.12 0 -5.84 1.27 -5.76 -1.25c-4.11,0.33 -7.38,3.8 -7.38,7.99l0 16.57c0,4.2 3.27,7.67 7.39,8l5.75 -0.86 5.84 0.88 36.61 0c39.17,0 78.34,0 117.51,0 -8.44,-12.87 -6.58,-23.42 0,-32.6z"/>
  <path class="fil1" d="M9.03 7.54l6.68 0 0 -2.18 1.4 0 0 2.18 156.14 0c-0.15,0.31 -0.3,0.62 -0.44,0.93l-155.7 0 0 4.05 154.27 0c-0.08,0.3 -0.15,0.61 -0.22,0.93l-154.05 0 0 3.41 153.52 0c-0.03,0.31 -0.05,0.62 -0.07,0.94l-153.45 0 0 3.72 153.49 0c0.02,0.32 0.05,0.63 0.09,0.93l-153.58 0 0 3.42 154.18 0c0.08,0.31 0.16,0.63 0.25,0.93l-154.43 0 0 4.04 155.96 0c0.15,0.32 0.31,0.63 0.48,0.93l-156.44 0 0 2.15 -1.4 0 0 -2.15 -7.8 0 0 -0.93 7.8 0 0 -4.04 -2.23 0 0 -0.93 2.23 0 0 -3.42 -6.37 0 0 -0.93 6.37 0 0 -3.72 -0.78 0 0 -0.94 0.78 0 0 -3.41 -3.59 0 0 -0.93 3.59 0 0 -4.05 -6.68 0 0 -0.93z"/>
  <g id="_2348593680368">
   <path class="fil4" d="M36.28 15.19l-5.33 0 0 -1.4 5.32 0.13c0,0.14 0.01,0.28 0.01,0.43l0 0.84 0 0 0 0zm-5.34 -1.62c0,-0.7 -0.07,-1.16 -0.2,-1.35 -0.13,-0.2 -0.36,-0.3 -0.68,-0.3 -0.35,0 -0.61,0.13 -0.79,0.4 -0.17,0.27 -0.26,0.68 -0.26,1.23l0 0.01 -5.36 -0.02c0.06,-1.25 0.27,-2.18 0.63,-2.81 0.43,-0.75 1.13,-1.34 2.09,-1.76 0.97,-0.42 2.13,-0.64 3.49,-0.64 1.5,0 2.77,0.23 3.82,0.7 1.05,0.46 1.74,1.04 2.09,1.75 0.28,0.59 0.45,1.52 0.49,2.81l-5.32 -0.02 0 0 0 0zm-1.93 0.17c0.02,0.61 0.11,1.09 0.3,1.41 0.19,0.36 0.73,0.79 1.62,1.3 1.06,0.6 1.96,1.16 2.7,1.67l-8.96 -0.01c-0.22,-0.31 -0.41,-0.66 -0.58,-1.05 -0.3,-0.73 -0.45,-1.65 -0.45,-2.77 0,-0.24 0,-0.47 0.01,-0.68l5.36 0.13 0 0 0 0zm4.86 4.56c0.9,0.65 1.53,1.23 1.89,1.73 0.13,0.18 0.24,0.37 0.34,0.59l-8.22 -0.01c-1.31,-0.85 -2.19,-1.46 -2.64,-1.85 -0.18,-0.16 -0.35,-0.35 -0.5,-0.56l9.13 0.1 0 0zm2.41 2.74c0.32,0.89 0.48,2.06 0.48,3.5 0,0.68 -0.04,1.27 -0.12,1.79l-5.58 -0.01c0.16,-0.29 0.24,-0.69 0.24,-1.22 0,-1.24 -0.18,-2.06 -0.53,-2.44 -0.32,-0.34 -1.07,-0.89 -2.24,-1.64l2.61 0.03 5.14 -0.01 0 0zm0.34 5.47c-0.1,0.55 -0.23,1.01 -0.42,1.37 -0.04,0.08 -0.09,0.17 -0.15,0.25l-11.29 0.09c-0.19,-0.25 -0.34,-0.51 -0.44,-0.79 -0.12,-0.3 -0.22,-0.66 -0.3,-1.06l5.32 0.06c0.01,0.02 0.02,0.03 0.03,0.05 0.15,0.22 0.42,0.34 0.8,0.34 0.35,0 0.62,-0.12 0.81,-0.37l5.64 0.06 0 0 0 0zm-0.66 1.75c-0.02,0.04 -0.05,0.07 -0.07,0.1l-11.05 -0.04 -0.04 -0.04 11.16 -0.02 0 0 0 0zm-0.39 0.44c-0.38,0.37 -0.88,0.69 -1.5,0.98 -1.06,0.48 -2.28,0.72 -3.68,0.72 -1.54,0 -2.85,-0.28 -3.94,-0.84 -0.6,-0.31 -1.09,-0.67 -1.47,-1.07l10.59 0.21 0 0zm-11.56 -2.4c-0.13,-0.71 -0.2,-1.55 -0.2,-2.54l0 -1.39 5.33 0 0 2.58c0,0.64 0.05,1.09 0.15,1.36l-5.28 -0.01 0 0 0 0zm27.95 -8.29l-5.74 0 0 -3.68 0 -0.16 5.69 0.14c0.04,0.51 0.05,1.08 0.05,1.69l0 2.01zm-5.75 -4.38c-0.02,-0.67 -0.08,-1.11 -0.17,-1.31 -0.12,-0.27 -0.39,-0.4 -0.81,-0.4 -0.48,0 -0.78,0.16 -0.91,0.48 -0.08,0.23 -0.14,0.64 -0.17,1.22l-5.68 -0.02c0.03,-0.29 0.05,-0.56 0.09,-0.78 0.11,-0.77 0.43,-1.5 0.97,-2.21 0.54,-0.7 1.29,-1.26 2.25,-1.67 0.96,-0.4 2.06,-0.61 3.31,-0.61 1.69,0 3.09,0.32 4.19,0.95 1.1,0.63 1.82,1.41 2.17,2.34l0.02 0.06 -3.47 0.02 3.47 0c0.18,0.51 0.31,1.16 0.39,1.96l-5.65 -0.03 0 0 0 0zm-2.07 0.48c-0.01,0.13 -0.01,0.25 -0.01,0.38l0 3.65 -5.74 -0.01 0 -1.88c0,-0.89 0.02,-1.65 0.06,-2.28l5.69 0.14 0 0zm-0.01 4.3l0 2.23 -5.74 -0.01 0 -2.28 5.74 0.06zm0 2.63l0 3.29c0,1.03 0.07,1.69 0.19,2.01l-5.61 -0.01c-0.21,-0.99 -0.32,-2.28 -0.32,-3.9l0 -1.39 5.74 0 0 0 0 0zm0.35 5.55c0.16,0.15 0.39,0.23 0.71,0.23 0.28,0 0.51,-0.07 0.66,-0.22l5.72 0.06c-0.03,0.11 -0.06,0.21 -0.09,0.3 -0.13,0.37 -0.33,0.73 -0.59,1.06l-11.45 0.09c-0.22,-0.31 -0.39,-0.65 -0.52,-1.01 -0.06,-0.18 -0.11,-0.37 -0.16,-0.57l5.72 0.06 0 0 0 0zm6.23 1.65c-0.05,0.06 -0.11,0.12 -0.16,0.17l-10.91 -0.04c-0.03,-0.03 -0.06,-0.07 -0.09,-0.11l11.16 -0.02 0 0zm-0.82 0.75c-0.17,0.13 -0.35,0.26 -0.55,0.38 -1.11,0.69 -2.47,1.03 -4.08,1.03 -1.69,0 -3.08,-0.29 -4.17,-0.88 -0.4,-0.21 -0.75,-0.45 -1.05,-0.73l9.85 0.2 0 0zm-3.87 -2.65c0.13,-0.31 0.2,-1.05 0.2,-2.2l0 -2.66 5.74 0 0 0.82c0,1.77 -0.1,3.11 -0.31,4.05l-5.63 -0.01 0 0 0 0zm21.2 -17.56l0 2.78 -5.74 0.04 0 -2.82 5.74 0zm0 2.9l0 2.04 -5.74 -0.02 0 -2.01 5.74 -0.01 0 0 0 0zm0 3.01l0 3.49 -13.2 -0.02 0 -3.8 5.75 0.14 0 1.85 1.71 0 0 -1.81 5.74 0.15 0 0 0 0zm0 3.92l0 2.07 -13.2 -0.02 0 -2.15 9.57 0.1 3.63 0 0 0 0 0zm0 2.41l0 1.75 -1.53 0 1.53 0.02 0 3.59 -5.74 -0.01 0 -5.31 -1.71 0 0 5.31 -5.75 -0.01 0 -5.33 13.2 -0.01 0 0 0 0zm0 5.79l0 1.11 -2.05 -0.01 -3.69 0.03 0 -1.17 4.31 0.04 1.43 0zm0 1.41l0 0.25 -5.74 -0.02 0 -0.22 5.74 -0.01 0 0zm0 1.07l0 0.67 -5.74 0 0 -0.74 3.69 0.07 2.05 0 0 0zm-7.45 -2.54l0 1.2 -5.75 0.05 0 -1.31 5.75 0.06 0 0 0 0zm0 1.48l0 0.21 -5.75 -0.02 0 -0.18 5.75 -0.01zm0 0.96l0 0.77 -5.75 0 0 -0.89 5.75 0.12zm-5.75 -15.52l0 -1.97 5.75 -0.01 0 2 -5.75 -0.02 0 0 0 0zm0 -2.01l0 -2.88 5.75 0 0 2.84 -5.75 0.04 0 0zm28.63 9.52c0,0.59 -0.01,1.13 -0.02,1.62l-5.72 -0.01 0 -1.78 5.74 -0.01 0 0.18 0 0 0 0zm-5.74 -0.48l0 -2.1 5.74 -0.01 0 2.13 -4.45 -0.02 -1.29 0 0 0 0 0zm5.72 2.25c-0.02,1.22 -0.07,2.13 -0.14,2.75 -0.03,0.24 -0.07,0.48 -0.13,0.71l-5.65 -0.01c0.01,-0.03 0.02,-0.05 0.03,-0.08 0.11,-0.33 0.17,-1.12 0.17,-2.37l0 -1.06 5.72 0.06 0 0 0 0zm-0.4 3.85c-0.14,0.39 -0.33,0.77 -0.58,1.12l-11.29 0c-0.24,-0.36 -0.44,-0.73 -0.58,-1.11l6.01 -0.01c0.06,0.01 0.13,0.02 0.2,0.02 0.07,0 0.14,-0.01 0.2,-0.02l6.04 0 0 0zm-0.78 1.4c-0.08,0.11 -0.17,0.22 -0.27,0.32l-10.38 -0.04c-0.07,-0.08 -0.15,-0.17 -0.22,-0.26l10.87 -0.02 0 0zm-1.15 1.07c-0.31,0.21 -0.65,0.39 -1.02,0.54 -0.93,0.4 -2.03,0.59 -3.27,0.59 -1.18,0 -2.25,-0.18 -3.19,-0.55 -0.39,-0.16 -0.76,-0.35 -1.08,-0.57l8.56 -0.01 0 0 0 0zm-10.65 -2.89c-0.05,-0.2 -0.09,-0.41 -0.12,-0.62 -0.08,-0.64 -0.13,-1.62 -0.15,-2.95l5.72 0.06 0 1.24c0,1.23 0.06,1.99 0.16,2.28l0.01 0 -5.62 -0.01 0 0zm-0.27 -3.6c-0.01,-0.49 -0.02,-1.02 -0.02,-1.6l0 -0.17 5.74 0 0 1.78 -5.72 -0.01 0 0 0 0zm-0.01 -2.1l0 -2.07 5.73 -0.01 0 2.09 -5.73 -0.01zm0 -2.49l0 -0.63 0 -0.5 5.74 -0.02 0 1.16 -5.74 -0.01 0 0 0 0zm7.54 0.01l0 -1.17 5.73 -0.03c0.01,0.18 0.01,0.37 0.01,0.56l0 0.65 -5.74 -0.01 0 0zm-7.54 -1.16c0,-0.89 0.01,-1.65 0.04,-2.3l0.89 0.02 4.8 -0.01 0 2.14 -5.73 0.15 0 0 0 0zm7.54 -0.2l0 -2.09 5.69 -0.02c0.03,0.57 0.04,1.22 0.04,1.97l-5.73 0.14 0 0 0 0zm-7.45 -3.11c0.02,-0.26 0.04,-0.49 0.06,-0.7 0.06,-0.47 0.18,-0.92 0.36,-1.35l12.24 -0.02c0.19,0.42 0.31,0.86 0.36,1.32 0.03,0.22 0.06,0.49 0.08,0.81l-5.66 -0.03c-0.01,-0.72 -0.07,-1.2 -0.17,-1.43 -0.11,-0.27 -0.34,-0.41 -0.69,-0.41 -0.31,0 -0.53,0.11 -0.69,0.33 -0.14,0.19 -0.22,0.69 -0.24,1.51l-5.65 -0.03 0 0 0 0zm0.48 -2.19c0.15,-0.32 0.34,-0.63 0.57,-0.93 0.54,-0.73 1.29,-1.3 2.23,-1.69 0.93,-0.39 2.02,-0.59 3.27,-0.59 1.18,0 2.24,0.19 3.18,0.56 0.94,0.37 1.7,0.92 2.27,1.67 0.23,0.28 0.41,0.58 0.56,0.89l-12.08 0.09 0 0 0 0zm27.97 9.64c0,0.6 -0.01,1.15 -0.02,1.65l-5.72 -0.01 0 -1.83 1.16 0 4.58 0 0 0.19 0 0 0 0zm-5.74 -0.41l0 -2.19 5.74 0 0 2.22 -5.74 -0.03 0 0zm5.72 2.34c-0.02,1.14 -0.07,2 -0.14,2.59 -0.03,0.25 -0.08,0.49 -0.14,0.73l-5.65 -0.01c0.02,-0.03 0.03,-0.06 0.04,-0.1 0.11,-0.33 0.17,-1.12 0.17,-2.37l0 -0.9 5.72 0.06 0 0zm-0.39 3.67c-0.15,0.4 -0.34,0.79 -0.59,1.15l-11.28 0c-0.25,-0.37 -0.45,-0.74 -0.59,-1.14l5.94 0c0.08,0.02 0.17,0.03 0.27,0.03 0.1,0 0.19,-0.01 0.27,-0.03l5.98 -0.01 0 0zm-0.77 1.4c-0.11,0.14 -0.22,0.27 -0.34,0.39l-10.28 -0.04c-0.1,-0.1 -0.19,-0.21 -0.28,-0.33l10.9 -0.02 0 0 0 0zm-1.13 1.06c-0.32,0.22 -0.67,0.41 -1.06,0.57 -0.94,0.4 -2.03,0.59 -3.27,0.59 -1.18,0 -2.25,-0.18 -3.19,-0.55 -0.41,-0.17 -0.79,-0.36 -1.13,-0.59l8.65 -0.02 0 0zm-10.68 -2.83c-0.06,-0.21 -0.1,-0.43 -0.13,-0.65 -0.08,-0.61 -0.13,-1.54 -0.15,-2.79l5.72 0.06 0 1.08c0,1.23 0.06,1.99 0.16,2.27l0.02 0.04 -5.62 -0.01 0 0zm-0.28 -3.61c-0.01,-0.49 -0.02,-1.03 -0.02,-1.62l0 -0.18 5.74 -0.01 0 1.82 -5.72 -0.01zm-0.02 -2.07l0 -2.14 5.74 0 0 2.17 -5.74 -0.03zm0 -2.52l0 -0.65c0,-0.2 0,-0.38 0.01,-0.57l5.73 -0.02 0 1.25 -5.73 -0.01 0 0 -0.01 0zm7.55 0.02l0 -1.27 5.73 -0.03c0.01,0.21 0.01,0.41 0.01,0.63l0 0.68 -5.74 -0.01 0 0zm-7.54 -1.58c0,-0.73 0.02,-1.37 0.04,-1.92l5.69 -0.01 0 1.78 -5.73 0.15 0 0zm7.54 -0.2l0 -1.74 5.69 -0.01c0.02,0.47 0.03,1.01 0.04,1.61l-5.73 0.14 0 0zm-7.46 -2.65c0.02,-0.29 0.05,-0.55 0.07,-0.77 0.06,-0.48 0.18,-0.94 0.37,-1.37l12.22 -0.02c0.19,0.43 0.32,0.87 0.37,1.34 0.03,0.24 0.06,0.53 0.08,0.87l-5.66 -0.02c-0.01,-0.76 -0.07,-1.26 -0.17,-1.5 -0.11,-0.27 -0.34,-0.41 -0.69,-0.41 -0.31,0 -0.53,0.11 -0.69,0.33 -0.15,0.19 -0.22,0.72 -0.24,1.57l-5.66 -0.02 0 0zm0.55 -2.38c0.14,-0.28 0.31,-0.55 0.51,-0.81 0.54,-0.73 1.29,-1.3 2.23,-1.69 0.93,-0.39 2.02,-0.59 3.27,-0.59 1.18,0 2.24,0.19 3.18,0.56 0.94,0.37 1.7,0.92 2.27,1.67 0.2,0.25 0.37,0.51 0.51,0.77l-11.97 0.09 0 0 0 0zm20.53 -2.64l0 2.55 -5.74 0 0 -2.55 5.74 0 0 0 0 0zm0 2.85l0 2.26 -5.74 -0.03 0 -2.22 5.74 -0.01 0 0zm0 3.05l0 1.42 -5.74 0.15 0 -1.55 5.74 -0.02 0 0zm0 2.22l0 1.35 -5.74 -0.01 0 -1.31 5.74 -0.03zm0 1.67l0 2.27 -5.74 -0.03 0 -2.23 5.74 -0.01 0 0zm0 2.41l0 1.86 -5.74 -0.01 0 -1.85 5.74 0 0 0zm0 2.21l0 2.53 3.49 0 0 0.74 -9.23 -0.02 0 -3.31 5.74 0.06 0 0zm3.49 3.58l0 1.17 -9.23 0 0 -1.16 9.23 -0.01zm0 1.4l0 0.44 -9.23 -0.03 0 -0.4 9.23 -0.01zm0 1.05l0 0.74 -9.23 0 0 -0.73 9.23 -0.01zm7.14 -20.44l0 2.56 -5.75 0 0 -2.56 5.75 0zm0 2.84l0 2.31 -5.75 -0.02 0 -2.29 5.75 0 0 0zm0 3.04l0 1.17 -5.75 0.15 0 -1.31 5.75 -0.01 0 0 0 0zm0 2.19l0 1.44 -5.75 -0.03 0 -1.38 5.75 -0.03 0 0zm0 1.71l0 2.34c-0.9,-0.01 -2.15,-0.02 -3.83,-0.03l-1.92 -0.01 0 -2.29 5.74 -0.01 0 0 0.01 0zm0 2.39l0 1.91 -5.75 -0.01 0 -1.88c2.33,-0.01 4.37,-0.01 5.75,-0.02l0 0zm0 2.34l0 3.19 -3.57 -0.02 -2.18 0 0 -3.22 5.1 0.06 0.65 -0.01 0 0 0 0zm0 3.47l0 1.19 -5.75 -0.01 0 -1.17 5.75 -0.01 0 0 0 0zm0 1.39l0 0.52 -4.19 -0.05 -1.56 0 0 -0.45 1.56 -0.01 4.19 -0.01 0 0zm0 1.05l0 0.76 -5.75 0 0 -0.75 5.75 -0.01 0 0zm11.9 -20.42l0 2.57 -10.07 -0.01 0 -2.56 10.07 0 0 0zm0 2.82l0 1.42 -0.35 1.04 -6.12 -0.07 0.3 -0.97 -3.9 0 0 -1.41 10.07 -0.01 0 0 0 0zm-0.54 3.03l-0.4 1.17 -6.11 -0.01 0.37 -1.14 6.14 -0.02 0 0 0 0zm-0.73 2.18l-0.52 1.53 -6.06 -0.03 0.47 -1.48 6.11 -0.02 0 0 0 0zm-0.59 1.74l-1.46 4.33 -5.98 -0.01 1.37 -4.31 5.39 -0.01 0.68 0 0 0zm-1.6 4.74l-0.82 2.43 4.28 0 0 0.82 -10.46 -0.05 1.02 -3.2 5.98 0 0 0 0 0zm3.46 3.46l0 1.21 -0.95 0 -9.63 -0.01 0 -1.06 0.04 -0.13 10.2 -0.01 0.34 0 0 0 0 0zm0 1.36l0 0.67 -10.58 -0.1 0 -0.54 10.58 -0.03 0 0zm0 1.07l0 0.78 -10.58 0 0 -0.76 9.63 -0.02 0.95 0 0 0 0 0zm1.49 -20.4l9.57 0 0 2.58 -9.57 -0.01 0 -2.57 0 0zm9.57 2.81l0 1.43 -3.83 0 0 1.13 -5.74 -0.06 0 -2.49 9.57 -0.01 0 0 0 0zm-3.83 3.03l0 1.2 -5.74 -0.01 0 -1.18 2.68 -0.01 3.06 0 0 0 0 0zm0 2.15l0 0.26 3.59 0 0 1.38 -9.33 -0.05 0 -1.57 5.74 -0.02 0 0zm3.59 1.77l0 2.52 -3.59 0 0 1.84 -5.74 -0.01 0 -4.34c2.64,0 6.04,-0.01 9.33,-0.01l0 0zm-3.59 4.74l0 2.44 4.22 0 0 0.88 -9.96 -0.05 0 -3.27 5.74 0 0 0 0 0zm4.22 3.46l0 1.22c-3.69,0 -7.41,0 -9.96,0l0 -1.21c2.41,0 6.17,0 9.96,-0.01l0 0zm0 1.32l0 0.83 -9.96 -0.09 0 -0.7 9.96 -0.04 0 0 0 0zm0 1.1l0 0.8 -9.96 0 0 -0.78c2.55,-0.01 6.27,-0.01 9.96,-0.02l0 0zm1.64 -20.38l4.07 0c2.71,0 4.54,0.1 5.5,0.3 0.96,0.2 1.74,0.71 2.35,1.53 0.15,0.22 0.29,0.47 0.41,0.76l-12.33 -0.01 0 -2.58 0 0 0 0zm12.4 2.77c0.27,0.74 0.41,1.68 0.42,2.83 -0.69,-0.01 -1.51,-0.02 -2.47,-0.03l-2.86 -0.04 0 -0.27c0,-0.67 -0.12,-1.11 -0.37,-1.32 -0.25,-0.21 -0.71,-0.32 -1.37,-0.32l0 1.89 -5.75 -0.06 0 -2.65 3.73 0 8.67 -0.03 0 0 0 0zm0.42 2.99l0 0.02c0,0.48 -0.01,0.92 -0.05,1.3l-5.3 -0.01c0.01,-0.19 0.02,-0.41 0.02,-0.65l0 -0.62c2.02,-0.01 3.88,-0.02 5.33,-0.04l0 0zm-0.17 2.15c-0.11,0.52 -0.26,0.92 -0.47,1.19 -0.42,0.57 -1.26,0.91 -2.52,1.02 1.13,0.27 1.9,0.64 2.29,1.09 0.39,0.45 0.64,0.87 0.73,1.25 0.07,0.26 0.11,0.82 0.13,1.69l-5.32 -0.01 0 0c0,-1.13 -0.09,-1.83 -0.28,-2.11 -0.19,-0.26 -0.68,-0.4 -1.46,-0.4l0 2.51 -5.75 -0.01 0 -4.38c8.13,-0.01 14.18,-0.04 3.63,-0.09l-3.63 -0.02 0 -1.68 5.75 -0.02 0 0.39c0.64,0 1.09,-0.08 1.35,-0.25 0.05,-0.04 0.1,-0.08 0.14,-0.15l5.41 -0.02 0 0 0 0zm0.17 6.57c0,0.33 0,0.7 0,1.11l0 5.59 -5.33 0 0 -0.84c3.81,-0.03 5.1,-0.07 0,-0.14l0 -0.95c5.1,-0.02 3.81,-0.04 0,-0.05l0 -1.26c4.43,-0.01 6.1,-0.04 0,-0.07l0 -3.39 5.33 0 0 0 0 0zm-7.07 0.01l0 3.37 -5.75 -0.03 0 -3.34 5.75 0 0 0 0 0zm0 3.46l0 1.25c-1.7,-0.01 -3.69,-0.01 -5.75,-0.01l0 -1.23c2.03,0 4.02,-0.01 5.75,-0.01l0 0zm0 1.31l0 0.93 -0.53 -0.01 -5.22 -0.05 0 -0.85 5.22 -0.02 0.53 0 0 0 0 0zm0 1.09l0 0.83 -5.75 0 0 -0.81c2.06,0 4.05,-0.01 5.75,-0.02l0 0 0 0zm-5.75 -13.29l0 -1.24c1.88,0 3.85,-0.01 5.75,-0.01l0 1.26 -5.75 -0.01 0 0 0 0z"/>
   <polygon class="fil5" points="53.37,8.24 67.79,8.24 67.79,45.2 60.86,36.68 53.37,45.2 "/>
   <polygon class="fil6" points="65.64,10.59 65.64,25.63 61.14,25.63 61.14,19.31 59.8,19.31 59.8,25.63 55.29,25.63 55.29,10.59 59.8,10.59 59.8,15.97 61.14,15.97 61.14,10.59 "/>
   <polygon id="_1" class="fil0" points="54.39,27.36 66.55,27.36 66.55,28.22 54.39,28.22 "/>
  </g>
 </g>
</svg>
